<?xml version="1.0" encoding="UTF-8" standalone="no"?>
<!-- Generator: Adobe Illustrator 13.0.0, SVG Export Plug-In . SVG Version: 6.00 Build 14576)  -->

<svg
   xmlns:dc="http://purl.org/dc/elements/1.1/"
   xmlns:cc="http://creativecommons.org/ns#"
   xmlns:rdf="http://www.w3.org/1999/02/22-rdf-syntax-ns#"
   xmlns:svg="http://www.w3.org/2000/svg"
   xmlns="http://www.w3.org/2000/svg"
   xmlns:sodipodi="http://sodipodi.sourceforge.net/DTD/sodipodi-0.dtd"
   xmlns:inkscape="http://www.inkscape.org/namespaces/inkscape"
   version="1.0"
   x="0px"
   y="0px"
   width="600"
   height="600"
   viewBox="0 0 600.00059 671.26859"
   enable-background="new 0 0 598.486 671.089"
   id="svg2"
   inkscape:version="0.48.5 r10040"
   sodipodi:docname="Oauth_logo.svg">
  <metadata
     id="metadata106">
    <rdf:RDF>
      <cc:Work
         rdf:about="">
        <dc:format>image/svg+xml</dc:format>
        <dc:type
           rdf:resource="http://purl.org/dc/dcmitype/StillImage" />
      </cc:Work>
    </rdf:RDF>
  </metadata>
  <defs
     id="defs104" />
  <sodipodi:namedview
     pagecolor="#ffffff"
     bordercolor="#666666"
     borderopacity="1"
     objecttolerance="10"
     gridtolerance="10"
     guidetolerance="10"
     inkscape:pageopacity="0"
     inkscape:pageshadow="2"
     inkscape:window-width="915"
     inkscape:window-height="567"
     id="namedview102"
     showgrid="false"
     showguides="true"
     inkscape:guide-bbox="true"
     inkscape:zoom="0.55640619"
     inkscape:cx="133.61992"
     inkscape:cy="193.90218"
     inkscape:window-x="211"
     inkscape:window-y="192"
     inkscape:window-maximized="0"
     inkscape:current-layer="svg2" />
  <path
     id="path3608"
     style="fill:#ffffff"
     d="m 396.45368,586.95644 -10.6667,3.95368 10.29604,11.57274 0.37066,-15.52642 z M 313.46762,583.95 c 12.91741,0.29351 21.2117,7.31826 21.86879,22.19824 l 1.23552,28.49943 -14.2497,0.61775 -1.27673,-28.16994 c -0.32276,-7.31992 -4.14873,-10.66931 -9.8018,-10.41959 -5.6531,0.24971 -9.20914,3.77063 -8.89578,10.87261 l 1.2767,28.54061 -14.29088,0.65895 -1.23554,-28.12877 c -0.72326,-16.37851 8.31174,-23.99201 22.73365,-24.62812 0.90142,-0.0399 1.77462,-0.0608 2.63577,-0.0412 z m -80.92681,-9.26644 13.59076,3.6654 -10.00775,37.10689 14.70274,3.99487 -3.21237,11.90222 -42.99624,-11.61392 3.21238,-11.90222 14.70274,3.95368 10.00774,-37.10692 z m 178.12139,-14.33208 -2.51224,55.47503 -12.7259,4.695 -38.01296,-40.44282 14.12616,-5.27157 6.63064,7.24841 18.36814,-6.79539 0.24711,-9.76064 13.87905,-5.14802 z m 54.36305,-21.37457 c -2.54954,0.0916 -5.10938,0.97164 -7.37195,2.75935 -6.09129,4.81201 -6.27199,12.86555 -1.72975,18.61522 l 0.0824,0.12352 c 4.54224,5.74968 12.68868,7.48898 18.77997,2.67697 6.03355,-4.76726 6.19078,-12.86555 1.64735,-18.61523 l -0.0824,-0.12351 c -2.83818,-3.59356 -7.07636,-5.58892 -11.32564,-5.43632 z m -311.96982,-1.15315 12.06694,7.20722 -9.92538,16.55602 15.52642,9.30763 9.92538,-16.55602 12.06694,7.24839 -26.11074,43.53164 -12.06694,-7.20722 9.76063,-16.30892 -15.48523,-9.30761 -9.80182,16.30892 -12.06695,-7.24841 26.11075,-43.53164 z m 314.35851,-12.39642 c 7.68765,0.0482 15.09536,3.48944 20.18023,9.92536 l 0.0823,0.12352 c 9.03975,11.44164 7.14768,28.01113 -5.14802,37.72468 -12.29569,9.71355 -28.64372,7.73507 -37.68349,-3.70657 l -0.0823,-0.12351 c -9.03975,-11.44281 -7.14647,-28.01115 5.14802,-37.72469 5.37934,-4.24915 11.52398,-6.25631 17.50326,-6.21879 z m -191.05321,-23.18667 -24.05154,24.01036 24.05154,24.05152 24.05152,-24.01035 -24.05152,-24.05153 z m 51.43899,-0.0412 -24.05154,24.05155 24.05154,24.09271 24.05152,-24.05154 -24.05152,-24.09272 z m 25.69889,-25.69891 -24.05154,24.05155 24.09273,24.09271 24.05153,-24.05152 -24.09272,-24.09274 z m -51.43899,0 -24.05152,24.05155 24.05152,24.05154 24.05154,-24.05154 -24.05154,-24.05155 z m -51.43897,0 -24.01036,24.05155 24.05153,24.05154 24.05154,-24.01035 -24.09271,-24.09274 z m 25.74008,-25.69889 -24.05154,24.05154 24.05154,24.05153 24.05152,-24.05153 -24.05152,-24.05154 z m 51.3978,-0.0412 -24.05154,24.05154 24.09273,24.09272 24.05152,-24.05153 -24.09271,-24.09273 z m -25.69891,-25.69889 -24.05152,24.05152 24.05152,24.05154 24.05154,-24.05154 -24.05154,-24.05152 z m -154.35813,0 -24.05154,24.05152 24.05154,24.05154 24.05152,-24.05154 -24.05152,-24.05152 z m 308.71628,-0.0412 -24.05154,24.09271 24.05154,24.05154 24.09271,-24.05154 -24.09271,-24.09271 z m -334.41519,-25.6989 -24.051541,24.05153 24.051541,24.05154 24.05154,-24.05154 -24.05154,-24.05153 z m 334.41519,-25.7401 -24.05154,24.05155 24.09273,24.09271 24.01035,-24.05152 -24.05154,-24.09274 z m -308.71628,0 -24.01035,24.05155 24.05152,24.05154 24.01035,-24.05154 -24.05152,-24.05155 z m 334.41519,-25.69889 -24.05154,24.05153 24.09271,24.05154 24.05154,-24.05154 -24.09271,-24.05153 z m -308.67511,0 -24.05154,24.05153 24.05154,24.05154 24.05152,-24.05154 -24.05152,-24.05153 z m -51.43899,0 -24.051541,24.01035 24.051541,24.05153 24.05154,-24.01035 -24.05154,-24.05153 z m 308.67511,-0.0412 -24.05155,24.05154 24.09274,24.09272 24.05152,-24.05155 -24.09271,-24.09271 z m 25.74008,-25.69889 -24.05154,24.05152 24.05154,24.09274 24.05154,-24.05155 -24.05154,-24.09271 z m -308.71628,0 -24.05154,24.05152 24.05154,24.05154 24.05152,-24.05154 -24.05152,-24.05152 z m 25.74008,-25.69891 -24.05154,24.05154 24.01035,24.01035 24.05154,-24.05154 -24.01035,-24.01035 z m -51.43899,0 -24.051541,24.05154 24.051541,24.05152 24.05154,-24.05152 -24.05154,-24.05154 z m 360.1141,-0.0412 -24.05154,24.09273 24.05154,24.09271 24.09271,-24.09271 -24.09271,-24.09273 z m -51.3978,0 -24.05154,24.05154 24.05154,24.09271 24.05152,-24.05152 -24.05152,-24.09273 z m 25.69889,-25.6989 -24.05154,24.05155 24.05154,24.09271 24.05154,-24.09271 -24.05154,-24.05155 z m -51.48017,0 -24.05154,24.05155 24.09272,24.05152 24.05154,-24.05152 -24.09272,-24.05155 z m -205.75595,0 -24.05154,24.05155 24.01035,24.01035 24.05154,-24.05154 -24.01035,-24.01036 z m -51.48016,0 -24.05154,24.05155 24.05154,24.05152 24.05152,-24.05152 -24.05152,-24.05155 z m 334.45636,-25.74008 -24.09271,24.09272 24.09271,24.05154 24.05154,-24.05154 -24.05154,-24.09272 z m -51.48016,0 -24.09272,24.09272 24.09272,24.05154 24.09271,-24.05154 -24.09271,-24.09272 z m -257.23612,0 -24.05154,24.05153 24.05154,24.05154 24.05152,-24.05154 -24.05152,-24.05153 z m -51.43899,0 -24.051541,24.09272 24.010351,24.01035 24.05154,-24.05154 -24.01035,-24.05153 z m 77.17907,-25.69891 -24.05154,24.05154 24.05154,24.01036 24.05155,-24.05155 -24.05155,-24.01035 z m 257.23612,-0.0412 -24.05154,24.05152 24.05154,24.09274 24.05154,-24.05155 -24.05154,-24.09271 z m -51.48017,0 -24.05154,24.09271 24.05154,24.09272 24.09272,-24.09272 -24.09272,-24.09271 z m -257.19494,0 -24.05152,24.09271 24.01035,24.01036 24.05152,-24.05155 -24.01035,-24.05152 z m 136.0724,-16.59721 36.65387,0 c 12.92258,0 24.76115,8.58852 28.66417,20.71561 l 0,0.0412 72.48408,218.19356 -0.0412,0 c 5.21189,16.04456 -3.33506,33.13866 -19.06825,38.26007 -3.12897,1.01577 -6.35303,1.52381 -9.59591,1.52381 -13.162,0 -24.60423,-8.30598 -28.62298,-20.67444 l -0.0412,0 -16.30891,-49.70925 -0.82369,-2.42988 -2.51224,0 -81.66814,0 -2.5946,0 -0.78249,2.51225 -15.15577,49.21504 c -4.12412,12.63941 -15.70106,21.04509 -28.91126,21.04509 -3.1635,0 -6.30422,-0.49491 -9.3488,-1.48262 l -0.0412,-0.0412 -0.0412,0 C 190.34,475.07608 181.3798,458.19644 186.20858,442.02938 c 0.004,-0.0113 -0.004,-0.0295 0,-0.0412 l 68.94226,-218.23473 c 4.00123,-12.41654 15.85861,-21.12747 28.66415,-21.12747 z m 146.86263,-9.1017 -24.05155,24.05154 24.09274,24.05153 24.05152,-24.05153 -24.09271,-24.05154 z m -51.439,0 -24.05152,24.05154 24.05152,24.05153 24.05155,-24.05153 -24.05155,-24.05154 z m -154.35815,0 -24.05152,24.05154 24.05152,24.05153 24.05155,-24.05153 -24.05155,-24.05154 z m -51.43897,0 -24.05154,24.05154 24.01035,24.05153 24.09271,-24.09272 -24.05152,-24.01035 z m 25.74008,-25.69889 -24.05154,24.05152 24.01035,24.01035 24.05154,-24.05152 -24.01035,-24.01035 z m 205.79713,-0.0412 -24.09272,24.09271 24.05154,24.05154 24.09272,-24.09271 -24.05154,-24.05154 z m -154.35813,0 -24.05155,24.05154 24.05155,24.05152 0.37064,-0.37066 c -1.00318,1.88503 -1.87782,3.85896 -2.55342,5.93053 l -21.86877,21.86877 11.36682,11.36682 -0.7825,2.55341 -12.23168,-12.27286 -24.09272,24.09272 24.05152,24.01035 1.40027,-1.40026 -1.56499,4.98327 -23.84563,23.84563 12.39643,12.39641 -0.82368,2.55343 -13.26129,-13.2613 -24.05154,24.05154 24.05154,24.05154 3.33591,-3.33592 -1.52381,4.81855 -0.16469,0.16468 0.0823,0.0824 -0.78249,2.51222 -0.94724,-0.94724 -24.05154,24.05155 13.46722,13.4672 -0.82368,2.55343 -14.33208,-14.33207 -24.05154,24.05152 24.05154,24.05154 5.47749,-5.47749 c -0.32864,1.36189 -0.56708,2.75571 -0.74132,4.1184 l -3.04763,3.00646 2.71816,2.71814 c 0.0313,1.23842 0.1373,2.44744 0.2883,3.6654 l -4.695,-4.695 -24.05154,24.05154 24.05154,24.05154 18.57403,-18.57405 c 0.62472,0.49414 1.27611,0.94601 1.93567,1.40026 l -18.82116,18.82114 24.05154,24.09274 24.05154,-24.05155 -12.47879,-12.51998 c 1.19874,0.15354 2.41426,0.25228 3.62421,0.2883 l 10.54312,10.54314 24.01036,-24.05154 -2.63578,-2.63579 c 0.45172,-0.6553 0.90637,-1.33105 1.31788,-2.01801 l 3.00645,3.00643 24.05153,-24.05154 -14.86747,-14.86746 0.7825,-2.55342 15.77353,15.77351 24.05152,-24.05152 -7.82497,-7.82499 3.3771,0 6.13643,6.13643 6.13643,-6.13643 3.29473,0 -7.78379,7.7838 24.05154,24.05154 18.57403,-18.57405 0.82369,2.47105 -17.75037,17.75037 24.09273,24.09271 5.80696,-5.80696 c 0.35174,0.73687 0.75626,1.43517 1.15316,2.14157 l -5.31275,5.31276 24.09271,24.09272 10.62551,-10.62551 c 0.99206,0.0789 1.99805,0.12351 3.00644,0.12351 0.0546,0 0.1103,2.5e-4 0.16469,0 l -12.14932,12.14933 24.05152,24.05154 24.05154,-24.05154 -17.21496,-17.21497 c 0.70202,-0.40966 1.39155,-0.82472 2.0592,-1.2767 l 16.84432,16.8443 24.05152,-24.05153 -24.09271,-24.09273 -0.49422,0.49422 c 0.008,-1.52382 -0.0659,-3.0343 -0.2471,-4.57145 l 0.78251,0.7825 24.05152,-24.09272 -24.09271,-24.05152 -11.73747,11.73747 -0.82369,-2.47105 10.91379,-10.91379 -21.78641,-21.78641 -1.97683,-5.93053 23.76324,-23.76324 -24.05154,-24.05153 -11.69628,11.69629 -0.82369,-2.47106 10.87262,-10.87259 -21.70404,-21.70405 -2.01803,-6.05407 23.68088,-23.68088 -24.05154,-24.09271 -11.61392,11.61392 -0.82369,-2.51223 10.79024,-10.79025 -21.58047,-21.58049 -0.16469,-0.53539 c -0.004,-0.0113 0.004,-0.0304 0,-0.0412 -0.59701,-1.84886 -1.35476,-3.61382 -2.22395,-5.31274 l 23.96917,-23.92799 -24.05153,-24.05153 -24.09273,24.05153 7.61907,7.61907 c -1.79256,-0.89579 -3.63348,-1.66316 -5.55985,-2.26514 l -3.70657,-3.70657 -2.38869,2.38869 c -1.01978,-0.13787 -2.05104,-0.23617 -3.0888,-0.28829 l 3.78893,-3.78894 -24.05154,-24.01035 -24.05153,24.05153 3.74776,3.74776 c -1.0027,0.058 -2.02056,0.14844 -3.00645,0.28829 l -2.38867,-2.38869 -3.83013,3.83013 c -2.04737,0.67108 -4.03709,1.54442 -5.93051,2.55341 l 8.07208,-8.07208 -24.05153,-24.05154 z m 128.61804,-25.69891 -24.05152,24.05154 24.05152,24.05154 24.05155,-24.05154 -24.05155,-24.05154 z m -51.43897,0 -24.09273,24.09273 24.05154,24.01035 24.05154,-24.09273 -24.01035,-24.01035 z m -51.43899,0 -24.05154,24.05154 24.05154,24.01035 24.05152,-24.05154 -24.05152,-24.01035 z m -51.48019,0 -24.01035,24.01035 24.01035,24.05154 24.05155,-24.05154 -24.05155,-24.01035 z m 77.17908,-25.74009 -24.05152,24.09274 24.05152,24.01035 24.05154,-24.05154 -24.05154,-24.05155 z m -3.87129,-3.87131 c 0.70116,-10e-4 1.40256,-0.002 2.10039,0 0.4265,0.001 0.85018,-0.004 1.2767,0 l 0.4942,0.49422 0.45302,-0.45303 c 1.12779,0.0151 2.24967,0.006 3.37712,0.0412 l -2.14158,2.14157 24.01035,24.05154 20.59206,-20.59206 c 0.90065,0.20676 1.78025,0.48339 2.67697,0.70013 l -21.5393,21.5393 24.01035,24.05154 24.05154,-24.05154 -19.80956,-19.85076 c 1.5429,0.41944 3.08421,0.82939 4.61261,1.27671 l 16.88549,16.88549 8.0721,-8.07208 c 0.79928,0.32813 1.59636,0.65363 2.38867,0.98841 l -8.77221,8.77223 24.05153,24.05154 16.55602,-16.55602 c 0.68591,0.42127 1.38402,0.85141 2.05922,1.2767 l -16.96788,16.96786 24.05155,24.05154 17.95628,-17.95628 1.68854,1.64737 -17.95628,17.95628 24.05154,24.09271 17.87392,-17.87392 1.64737,1.64737 -17.87392,17.87392 24.09271,24.05153 12.84946,-12.84944 c 0.39808,0.71569 0.80211,1.42121 1.19434,2.14156 l -12.39643,12.39643 24.09271,24.05155 3.3771,-3.3771 c 0.29691,0.8105 0.57849,1.61792 0.86488,2.42986 l -2.59461,2.59459 5.14802,5.18921 c 0.48538,1.57564 0.95889,3.15973 1.40026,4.73617 l -8.23682,-8.23683 -24.05154,24.05155 24.09271,24.05152 13.46723,-13.4672 c 0.12446,0.97322 0.25946,1.95217 0.37066,2.92407 l -12.19052,12.1905 13.59078,13.59078 c -0.006,1.10888 -0.0189,2.23017 -0.0412,3.3359 l -15.23813,-15.23812 -24.09273,24.09271 24.09273,24.05154 14.00261,-14.0026 c -0.13674,1.25181 -0.29457,2.50162 -0.45302,3.74775 l -11.90222,11.9022 8.36037,8.3604 c -0.20234,0.89041 -0.4042,1.7905 -0.61776,2.67696 l -9.38998,-9.38999 -24.05154,24.05154 21.25102,21.25102 c -0.3439,0.77574 -0.71775,1.53541 -1.07079,2.30631 l -21.86877,-21.86877 -24.01035,24.05153 24.05152,24.09271 17.66801,-17.66799 c -1.13236,2.19919 -2.29258,4.39482 -3.50066,6.54828 -0.071,0.15147 -0.14297,0.30215 -0.20593,0.45303 l -12.31405,12.31405 4.48908,4.48908 c -0.40585,0.69682 -0.81681,1.37431 -1.23554,2.0592 l -4.90091,-4.90091 -24.09271,24.05154 8.11326,8.11327 c -0.52365,0.58316 -1.07509,1.14962 -1.60617,1.72973 l -8.15446,-8.15446 -24.05154,24.05154 7.49551,7.49552 c -0.61183,0.50088 -1.19328,1.02782 -1.81209,1.52381 l -7.37196,-7.37196 -24.05155,24.05154 2.84172,2.84169 c -0.7177,0.41153 -1.45802,0.78969 -2.18276,1.19435 l -2.3475,-2.3475 -7.53671,7.53669 c -2.06135,1.01564 -4.14607,2.00689 -6.25998,2.96527 l 12.14933,-12.14933 -24.05155,-24.05152 -24.05152,24.05152 18.98588,18.98589 c -0.82032,0.29066 -1.6437,0.58296 -2.47105,0.86487 l -18.20339,-18.20339 -24.05154,24.05154 3.50065,3.50066 c -0.97077,0.14429 -1.94554,0.27925 -2.92407,0.41183 l -2.26512,-2.26512 -2.92408,2.92408 c -1.1951,0.13428 -2.41785,0.2539 -3.6242,0.37064 l 4.90091,-4.94209 -24.05154,-24.05154 -24.05153,24.05154 5.31275,5.31275 c -1.21183,-0.0946 -2.42057,-0.21532 -3.62421,-0.32947 l -3.3359,-3.33591 -2.67697,2.67697 c -0.99092,-0.12182 -1.98041,-0.2361 -2.96527,-0.37066 l 3.95368,-3.95368 -24.05153,-24.05154 -19.02707,19.02708 c -0.8285,-0.26964 -1.64931,-0.54587 -2.47105,-0.82369 l 19.85076,-19.85076 -24.05155,-24.05152 -24.05154,24.05152 14.86749,14.86749 c -1.95703,-0.80004 -3.89659,-1.62843 -5.80696,-2.47106 l -10.74907,-10.74906 -3.74776,3.74776 c -0.73552,-0.38819 -1.45605,-0.80055 -2.18275,-1.19434 l 4.24195,-4.24196 -24.05152,-24.05154 -9.38999,9.38997 c -0.63248,-0.47995 -1.30995,-0.91556 -1.93565,-1.40026 l 9.67827,-9.63708 -24.09271,-24.09271 -10.87262,10.91379 c -0.54462,-0.57214 -1.06866,-1.15252 -1.60618,-1.72974 l 10.83143,-10.83142 -24.05154,-24.05154 -8.03091,8.0309 c -0.44996,-0.67444 -0.9166,-1.33805 -1.35907,-2.01801 l 7.70144,-7.70143 -24.051551,-24.05155 -0.12351,0.12352 c -0.97341,-2.2692 -1.90018,-4.38955 -2.67697,-6.25998 l 2.80052,2.80052 24.051551,-24.05154 -24.051551,-24.05155 -11.49038,11.49039 c -0.15279,-0.94082 -0.30951,-1.89091 -0.45303,-2.84171 l 10.29604,-10.29604 -12.80826,-12.80827 c -0.0822,-1.19179 -0.1373,-2.38623 -0.20593,-3.58301 l 14.70275,14.70274 24.010361,-24.05155 -24.010361,-24.01035 -15.23814,15.19696 c 8.3e-4,-1.1392 0.0279,-2.28119 0.0412,-3.41829 l 13.46721,-13.5084 -12.06695,-12.06694 c 0.10199,-1.00399 0.21651,-2.01178 0.32947,-3.00646 l 13.42603,13.42621 24.051551,-24.05152 -24.051551,-24.05154 -8.97814,8.97814 c 0.38456,-1.55503 0.81445,-3.07316 1.23552,-4.57144 l 6.09526,-6.09526 -3.13,-3.12999 c 0.28681,-0.80886 0.56687,-1.61766 0.86488,-2.42986 l 3.91248,3.9125 24.051551,-24.05154 -12.97301,-12.97301 c 0.39612,-0.72688 0.78999,-1.45855 1.19434,-2.18276 l 13.46721,13.46721 24.05154,-24.05153 -18.32695,-18.32694 c 0.48389,-0.61454 0.99206,-1.20432 1.48263,-1.81209 l 18.49169,18.49167 24.09271,-24.09272 -19.31535,-19.31537 c 0.56566,-0.53125 1.11993,-1.08294 1.68854,-1.60618 l 19.27418,19.27418 24.05152,-24.05154 -16.22653,-16.22655 c 0.67854,-0.43544 1.3728,-0.88983 2.0592,-1.31788 l 15.85589,15.85589 24.05154,-24.05154 -7.94854,-7.94854 c 0.78754,-0.31746 1.58996,-0.59388 2.38867,-0.90605 l 7.20722,7.20722 14.86749,-14.86746 c 1.64349,-0.5383 3.30827,-1.0799 4.9421,-1.6062 l -18.12103,18.12103 24.01035,24.05154 24.05155,-24.05154 -20.92156,-20.92155 c 0.85011,-0.25102 1.69855,-0.49858 2.55342,-0.7413 l 20.0155,20.01548 24.09272,-24.09271 -2.18276,-2.18278 z M 143.62426,99.748218 c -2.5595,3e-4 -5.14458,0.796522 -7.49552,2.512222 -6.21144,4.53284 -6.70713,12.61355 -2.38869,18.53286 l 0.0824,0.0823 c 4.31961,5.91814 12.36258,7.95113 18.57403,3.41829 6.27037,-4.57524 6.74949,-12.61355 2.42986,-18.53286 l -0.0823,-0.12352 c -2.69903,-3.69884 -6.8539,-5.889832 -11.11971,-5.889322 z m 1.89446,-13.42603 c 8.02973,0.0616 15.67981,3.80708 20.71563,10.70787 l 0.12352,0.12352 c 8.59446,11.778552 6.06781,28.241082 -6.58948,37.477552 -12.6573,9.23649 -28.92427,6.67174 -37.51874,-5.10683 l -0.0824,-0.12351 c -8.59448,-11.77856 -6.06785,-28.23992 6.58946,-37.477562 4.7465,-3.46369 9.99033,-5.28368 15.15576,-5.55985 0.53807,-0.0287 1.07087,-0.0451 1.60618,-0.0412 z m 300.68539,-13.09657 11.69628,7.78382 -10.50195,15.8147 15.03222,10.007752 10.54313,-15.814712 11.6963,7.7838 -28.12877,42.296112 -11.73747,-7.7838 10.70787,-16.103 -15.03221,-10.00774 -10.70787,16.10298 -11.6963,-7.82497 28.12877,-42.254942 z m -229.64275,-7.04247 -1.07079,15.48523 10.87262,-3.50065 -9.80183,-11.98458 z m 1.44143,-17.997478 36.24206,42.090188 -14.37327,4.61264 -6.30117,-7.53671 -18.65642,6.01289 -0.65894,9.719452 -14.12616,4.53025 4.98328,-55.310292 12.89062,-4.118418 z m 147.56278,-4.447889 42.58439,13.014197 -3.58302,11.81984 -14.57918,-4.44789 -11.24328,36.736252 -13.4672,-4.077232 11.24327,-36.77742 -14.57918,-4.44789 3.6242,-11.819857 z m -87.96933,-7.289584 14.29091,0.08234 -0.0823,28.211141 c -0.0295,7.32701 3.64864,10.80785 9.30761,10.83142 5.65899,0.0223 9.36289,-3.26933 9.38999,-10.3784 l 0.12352,-28.581798 14.29089,0.04117 -0.12352,28.169958 c -0.0648,16.395 -9.44958,23.5327 -23.8868,23.47495 -14.43604,-0.0589 -23.45502,-7.4229 -23.39258,-23.31022 l 0.0823,-28.540605 z m 24.79287,-21.662853 c -8.4115,-0.07139 -17.00333,0.27808 -25.82247,1.0296 C 186.65678,23.478833 123.52449,63.818388 75.546859,111.03267 41.941699,144.10186 16.659939,184.59016 -0.02602057,231.90811 -24.525481,301.38607 -23.042631,383.40763 4.5042394,454.09653 28.001239,514.39336 66.469489,563.03816 120.89062,600.71206 c 51.16047,35.41809 124.60286,62.89339 207.07383,55.92805 100.44801,-8.48374 173.91753,-60.05244 222.14723,-119.43399 12.34043,-15.19114 24.62506,-32.34485 31.75297,-52.88044 6.98422,-14.79653 10.39021,-24.85642 13.59076,-30.22915 C 608.8513,424.07944 615.97098,392.39495 618.14788,357.355 624.84465,249.58001 583.35802,165.40763 525.9366,107.98504 498.14474,80.193158 463.99654,55.167008 423.18217,39.99004 387.48675,26.716306 347.81105,15.170434 302.38911,14.785344 z M 305.39555,2.4246939e-4 C 410.26474,-0.12648453 492.1878,49.453633 544.0988,106.46123 c 14.67163,16.1111 29.30988,32.133 39.28967,48.39136 18.47178,30.09482 30.26404,65.63979 39.28967,99.74797 33.76419,127.6191 -16.97328,248.64537 -80.10315,314.35852 -47.18484,49.11436 -105.11306,82.3491 -181.37494,96.74153 -85.8341,16.19948 -168.17936,-4.93218 -226.71868,-37.80702 C 74.310569,594.10228 31.707359,546.13622 -0.02602057,484.32568 -30.627391,424.72265 -44.850271,329.8975 -22.677301,251.55293 -2.7472006,181.13378 31.246439,122.7016 84.607389,80.803508 121.6122,51.747648 164.16025,24.798866 222.1624,9.7608775 c 20.81477,-5.397469 40.03774,-7.65048 61.94093,-9.06050503 7.19336,-0.463165 14.30094,-0.691688 21.29222,-0.70013000061 z"
     inkscape:connector-curvature="0" />
</svg>
